<?xml version="1.0" encoding="UTF-8" standalone="no"?>
<svg
   xmlns:dc="http://purl.org/dc/elements/1.1/"
   xmlns:cc="http://creativecommons.org/ns#"
   xmlns:rdf="http://www.w3.org/1999/02/22-rdf-syntax-ns#"
   xmlns:svg="http://www.w3.org/2000/svg"
   xmlns="http://www.w3.org/2000/svg"
   xmlns:sodipodi="http://sodipodi.sourceforge.net/DTD/sodipodi-0.dtd"
   xmlns:inkscape="http://www.inkscape.org/namespaces/inkscape"
   version="1.1"
   width="2600"
   height="2800"
   viewBox="0 0 2600 2800"
   xml:space="preserve"
   id="svg1071"
   sodipodi:docname="Ada_Mascot_Wikibook.svg"
   inkscape:version="0.92.5 (2060ec1f9f, 2020-04-08)"><metadata
   id="metadata1077"><rdf:RDF><cc:Work
       rdf:about=""><dc:format>image/svg+xml</dc:format><dc:type
         rdf:resource="http://purl.org/dc/dcmitype/StillImage" /><dc:title></dc:title></cc:Work></rdf:RDF></metadata><defs
   id="defs1075" /><sodipodi:namedview
   pagecolor="#fdfcf8"
   bordercolor="#666666"
   borderopacity="1"
   objecttolerance="10"
   gridtolerance="10"
   guidetolerance="10"
   inkscape:pageopacity="0"
   inkscape:pageshadow="2"
   inkscape:window-width="1310"
   inkscape:window-height="713"
   id="namedview1073"
   showgrid="false"
   inkscape:zoom="0.10962794"
   inkscape:cx="345.743"
   inkscape:cy="1519.8372"
   inkscape:window-x="56"
   inkscape:window-y="339"
   inkscape:window-maximized="1"
   inkscape:current-layer="svg1071" />
	<style
   type="text/css"
   id="style986">
		path    { stroke: #000; fill: #000;    }
		.blue   { stroke: none; fill: #001ec8; }
		.purple { stroke: none; fill: #14127b; }
		.lace{
			fill: none;
			stroke: #000050;
			stroke-width: 4.56;
			stroke-linecap: round;
			stroke-dasharray: 4.56, 9.12;
		}
		#beak { stroke-width: 1.4543; }
		#eye  { fill: #fff; }
		#slogan{
			font-family: DejaVu Sans, DejaVuSans, sans-serif;
			font-size: 160px;
			letter-spacing: 2.058;
		}
	</style>
	<g
   id="mascot"
   style="fill:#15304f;fill-opacity:1;stroke:none"
   transform="translate(12,26)">
		<path
   d="m 1611.977,893.89 c 0,0 9.516,-105.79 218.437,-113.147 176.135,10.486 299.541,181.092 341.412,235.654 0,0 -152.667,101.169 -309.918,-74.527 -181.344,-162.704 -249.931,-47.98 -249.931,-47.98 z"
   id="path988"
   style="fill:#15304f;fill-opacity:1;stroke:none"
   inkscape:connector-curvature="0" />
		<path
   d="m 1611.977,893.89 c 0,0 9.516,-105.79 218.437,-113.147 176.135,10.486 299.541,181.092 341.412,235.654 0,0 -152.667,101.169 -309.918,-74.527 -181.344,-162.704 -249.931,-47.98 -249.931,-47.98 z"
   id="path990"
   style="fill:#2a62a1;fill-opacity:1;stroke:none"
   inkscape:connector-curvature="0" />
		<path
   d="m 1609.99,951.172 c 0,0 -17.842,77.477 85.748,137.389 72.271,41.798 31.627,53.267 31.627,53.267 0,0 33.552,6.073 89.941,-45.237 80.09,-72.877 39.384,-130.639 39.384,-130.639 0,0 -84.44,-119.765 -160.184,-28.007 -10e-4,-0.001 -23.964,28.114 -86.516,13.227 z"
   id="path992"
   style="fill:#15304f;fill-opacity:1;stroke:none"
   inkscape:connector-curvature="0" />
		<path
   d="m 1609.99,951.172 c 0,0 -17.842,77.477 85.748,137.389 72.271,41.798 31.627,53.267 31.627,53.267 0,0 33.552,6.073 89.941,-45.237 80.09,-72.877 39.384,-130.639 39.384,-130.639 0,0 -84.44,-119.765 -160.184,-28.007 -10e-4,-0.001 -23.964,28.114 -86.516,13.227 z"
   id="path994"
   style="fill:#5f96d3;fill-opacity:1;stroke:none"
   inkscape:connector-curvature="0" />
		<path
   d="m 1886.471,988.581 c 0,0 11.138,114.979 -147.041,163.575 0,0 162.152,-61.352 338.891,89.662 0,0 18.5,-138.54 102.683,-209.607 -9.579,2.773 -141.095,89.481 -294.533,-43.63 z"
   id="path996"
   style="fill:#15304f;fill-opacity:1;stroke:none"
   inkscape:connector-curvature="0" />
		<path
   d="m 1886.471,988.581 c 0,0 11.138,114.979 -147.041,163.575 0,0 162.152,-61.352 338.891,89.662 0,0 18.5,-138.54 102.683,-209.607 -9.579,2.773 -141.095,89.481 -294.533,-43.63 z"
   id="path998"
   style="fill:#2a62a1;fill-opacity:1;stroke:none"
   inkscape:connector-curvature="0" />
		<path
   d="m 1620.416,927.717 c 0,0 52.75,50.553 101.022,-46.643 0,0.001 -59.981,-41.814 -101.022,46.643 z"
   id="path1000"
   style="fill:#15304f;fill-opacity:1;stroke:none"
   inkscape:connector-curvature="0" />
		<path
   d="m 1620.416,927.717 c 0,0 52.75,50.553 101.022,-46.643 0,0.001 -59.981,-41.814 -101.022,46.643 z"
   id="path1002"
   style="fill:#15304f;fill-opacity:1;stroke:none"
   inkscape:connector-curvature="0" />
		<path
   id="eye"
   d="m 1663.644,906.901 c 1.978,6.592 -1.131,13.3 -6.948,14.985 -5.818,1.685 -12.139,-2.292 -14.12,-8.884 -1.978,-6.589 1.134,-13.297 6.952,-14.982 5.817,-1.685 12.138,2.292 14.116,8.881 z"
   style="fill:#ffffff;fill-opacity:0.94117647;stroke:none"
   inkscape:connector-curvature="0" />
		<path
   d="m 2425.161,1516.737 c 10.324,-223.678 6.519,-390.567 -146.927,-494.139 -197.333,-224.644 -429.309,-530.796 -380.538,-901.605 35.248,-267.985 54.6,-5.352 54.6,-5.352 0,0 43.629,382.154 187.388,504.897 366.257,323.333 366.683,500.749 285.477,896.199 z"
   id="path1005"
   style="fill:#15304f;fill-opacity:1;stroke:none"
   inkscape:connector-curvature="0" />
		<path
   d="m 2425.161,1516.737 c 10.324,-223.678 6.519,-390.567 -146.927,-494.139 -197.333,-224.644 -429.309,-530.796 -380.538,-901.605 35.248,-267.985 54.6,-5.352 54.6,-5.352 0,0 43.629,382.154 187.388,504.897 366.257,323.333 366.683,500.749 285.477,896.199 z"
   id="path1007"
   style="fill:#15304f;fill-opacity:1;stroke:none"
   inkscape:connector-curvature="0" />
		<path
   d="m 1828.757,315.384 c 0,0 52.75,258.796 193.011,419.396 147.362,168.734 110.844,131.4 234.271,285.874 0,0 -13.726,-12.4 -55.464,0.307 0,0 -112.847,-170.83 -224.24,-222.873 0,0 -139.636,-143.078 -161.395,-297.193 -35.334,-250.261 -3.128,-280.036 13.817,-185.511 z"
   id="path1009"
   style="fill:#15304f;fill-opacity:1;stroke:none"
   inkscape:connector-curvature="0" />
		<path
   d="m 1828.757,315.384 c 0,0 52.75,258.796 193.011,419.396 147.362,168.734 110.844,131.4 234.271,285.874 0,0 -13.726,-12.4 -55.464,0.307 0,0 -112.847,-170.83 -224.24,-222.873 0,0 -139.636,-143.078 -161.395,-297.193 -35.334,-250.261 -3.128,-280.036 13.817,-185.511 z"
   id="path1011"
   style="fill:#15304f;fill-opacity:1;stroke:none"
   inkscape:connector-curvature="0" />
		<path
   d="m 1948.479,783.247 c 0,0 -125.77,-141.083 -137.986,-179.972 -21.57,-68.681 -29.621,-88.42 -36.591,-29.45 -3.865,32.725 19.875,183.652 86.226,190.548 44.038,4.576 88.351,18.874 88.351,18.874 z"
   id="path1013"
   style="fill:#15304f;fill-opacity:1;stroke:none"
   inkscape:connector-curvature="0" />
		<path
   d="m 1948.479,783.247 c 0,0 -125.77,-141.083 -137.986,-179.972 -21.57,-68.681 -29.621,-88.42 -36.591,-29.45 -3.865,32.725 19.875,183.652 86.226,190.548 44.038,4.576 88.351,18.874 88.351,18.874 z"
   id="path1015"
   style="fill:#15304f;fill-opacity:1;stroke:none"
   inkscape:connector-curvature="0" />
		<path
   d="m 265.722,564.054 c -8.152,108.752 34.836,295.607 94.35,374.47 116.74,238.76 440.318,520.593 886.586,435.668 138.708,-39.579 259.46,24.864 346.052,98.731 83.282,84.862 112.474,99.424 169.505,65.834 -59.141,-57.281 -122.45,-124.229 -121.132,-212.485 4.155,-64.08 27.511,-126.884 68.622,-161.109 -40.588,-142.423 -268.016,-149.301 -369.352,-139.12 -131.23,8.867 -262.996,76.582 -380.2,89.509 C 634.705,1088.895 398.79,864.875 322.157,519.999 289.667,361.155 273.87,455.302 265.722,564.054 Z"
   id="path1017"
   style="fill:#15304f;fill-opacity:1;stroke:none"
   inkscape:connector-curvature="0" />
		<path
   d="m 265.722,564.054 c -8.152,108.752 34.836,295.607 94.35,374.47 116.74,238.76 440.318,520.593 886.586,435.668 138.708,-39.579 259.46,24.864 346.052,98.731 83.282,84.862 112.474,99.424 169.505,65.834 -59.141,-57.281 -122.45,-124.229 -121.132,-212.485 4.155,-64.08 27.511,-126.884 68.622,-161.109 -40.588,-142.423 -268.016,-149.301 -369.352,-139.12 -131.23,8.867 -262.996,76.582 -380.2,89.509 C 634.705,1088.895 398.79,864.875 322.157,519.999 289.667,361.155 273.87,455.302 265.722,564.054 Z"
   id="path1019"
   style="fill:#15304f;fill-opacity:1;stroke:none"
   inkscape:connector-curvature="0" />
		<path
   d="m 562.838,1304.813 c 230.013,136.835 460.685,181.856 650.958,111.34 0,0 173.715,-105.567 417.032,116.186 0,0 -273.168,145.195 -534.295,135.596 -94.496,-3.474 -390.567,-65.621 -583.404,-262.864 -175.166,-179.173 -177.987,-366.224 -99.331,-247.676 77.492,116.786 149.04,147.418 149.04,147.418 z"
   id="path1021"
   style="fill:#15304f;fill-opacity:1;stroke:none"
   inkscape:connector-curvature="0" />
		<path
   d="m 562.838,1304.813 c 230.013,136.835 460.685,181.856 650.958,111.34 0,0 173.715,-105.567 417.032,116.186 0,0 -273.168,145.195 -534.295,135.596 -94.496,-3.474 -390.567,-65.621 -583.404,-262.864 -175.166,-179.173 -177.987,-366.224 -99.331,-247.676 77.492,116.786 149.04,147.418 149.04,147.418 z"
   id="path1023"
   style="fill:#15304f;fill-opacity:1;stroke:none"
   inkscape:connector-curvature="0" />
		<path
   d="m 965.398,1707.048 c 335.49,31.676 535.63,-83.299 681.562,-151.143 24.455,174.479 -266.714,305.736 -474.431,287.002 -138.928,-6.75 -333.321,-37.361 -454.117,-163.129 -11.647,-12.125 -91.392,-113.813 36.099,-35.268 82.58,39.237 141.487,48.613 210.887,62.538 z"
   id="path1025"
   style="fill:#15304f;fill-opacity:1;stroke:none"
   inkscape:connector-curvature="0" />
		<path
   d="m 965.398,1707.048 c 335.49,31.676 535.63,-83.299 681.562,-151.143 24.455,174.479 -266.714,305.736 -474.431,287.002 -138.928,-6.75 -333.321,-37.361 -454.117,-163.129 -11.647,-12.125 -91.392,-113.813 36.099,-35.268 82.58,39.237 141.487,48.613 210.887,62.538 z"
   id="path1027"
   style="fill:#15304f;fill-opacity:1;stroke:none"
   inkscape:connector-curvature="0" />
		<path
   d="m 1684.492,1568.591 c 63.313,127.972 114.759,155.246 291.324,232.417 107.66,49.228 142.959,77.509 117.842,122.341 0,0 133.856,-71.649 196.353,-165.761 0,0 -339.162,-60.108 -515.42,-210.421 -44.607,36.702 -90.099,21.424 -90.099,21.424 z"
   id="path1029"
   style="fill:#15304f;fill-opacity:1;stroke:none"
   inkscape:connector-curvature="0" />
		<path
   d="m 1684.492,1568.591 c 63.313,127.972 114.759,155.246 291.324,232.417 107.66,49.228 142.959,77.509 117.842,122.341 0,0 133.856,-71.649 196.353,-165.761 0,0 -339.162,-60.108 -515.42,-210.421 -44.607,36.702 -90.099,21.424 -90.099,21.424 z"
   id="path1031"
   style="fill:#15304f;fill-opacity:1;stroke:none"
   inkscape:connector-curvature="0" />
		<path
   d="m 1670.934,1581.267 c 0,0 5.497,149.755 -207.863,248.039 -153.561,70.739 39.722,44.073 138.258,-3.812 101.34,-49.249 123.406,-118.457 108.874,-175.288 -11.095,-43.385 -28.16,-56.93 -39.269,-68.939 z"
   id="path1033"
   style="fill:#15304f;fill-opacity:1;stroke:none"
   inkscape:connector-curvature="0" />
		<path
   d="m 1670.934,1581.267 c 0,0 5.497,149.755 -207.863,248.039 -153.561,70.739 39.722,44.073 138.258,-3.812 101.34,-49.249 123.406,-118.457 108.874,-175.288 -11.095,-43.385 -28.16,-56.93 -39.269,-68.939 z"
   id="path1035"
   style="fill:#15304f;fill-opacity:1;stroke:none"
   inkscape:connector-curvature="0" />
		<path
   d="m 2421.78,1531.324 c 0,0 -61.757,173.345 -118.533,221.491 0,0 36.291,8.63 49.189,85.811 36.989,-90.593 69.344,-307.302 69.344,-307.302 z"
   id="path1037"
   style="fill:#15304f;fill-opacity:1;stroke:none"
   inkscape:connector-curvature="0" />
		<path
   d="m 2421.78,1531.324 c 0,0 -61.757,173.345 -118.533,221.491 0,0 36.291,8.63 49.189,85.811 36.989,-90.593 69.344,-307.302 69.344,-307.302 z"
   id="path1039"
   style="fill:#15304f;fill-opacity:1;stroke:none"
   inkscape:connector-curvature="0" />
		<path
   d="m 2298.067,1774.257 c 0,0 60.485,207.06 -215.383,436.233 -121.197,100.688 -246.916,149.312 -391.878,178.315 0,0 -287.012,47.125 -352.704,-156.11 0,0 58.862,34.805 211.641,24.406 430.153,-29.275 709.851,-266.408 748.324,-482.844 z"
   id="path1041"
   style="fill:#15304f;fill-opacity:1;stroke:none"
   inkscape:connector-curvature="0" />
		<path
   d="m 2298.067,1774.257 c 0,0 60.485,207.06 -215.383,436.233 -121.197,100.688 -246.916,149.312 -391.878,178.315 0,0 -287.012,47.125 -352.704,-156.11 0,0 58.862,34.805 211.641,24.406 430.153,-29.275 709.851,-266.408 748.324,-482.844 z"
   id="path1043"
   style="fill:#2a62a1;fill-opacity:1;stroke:none"
   inkscape:connector-curvature="0" />
		<path
   d="m 1496.487,2128.527 c 0,0 38.184,92.072 159.839,90.203 210.235,-3.234 551.609,-189.684 614.506,-413.938 0,0 -176.721,209.97 -498.868,285.338 -209.259,48.955 -275.477,38.397 -275.477,38.397 z"
   id="path1045"
   style="fill:#15304f;fill-opacity:1;stroke:none"
   inkscape:connector-curvature="0" />
		<path
   d="m 1496.487,2128.527 c 0,0 38.184,92.072 159.839,90.203 210.235,-3.234 551.609,-189.684 614.506,-413.938 0,0 -176.721,209.97 -498.868,285.338 -209.259,48.955 -275.477,38.397 -275.477,38.397 z"
   id="path1047"
   style="fill:#15304f;fill-opacity:1;stroke:none"
   inkscape:connector-curvature="0" />
		<path
   d="m 2319.562,1784.373 c 67.984,66.106 49.556,575.534 -455.449,704.963 0,0 -201.498,64.398 -354.49,-55.349 201.174,25.111 498.821,-106.314 617.34,-227.303 131.909,-134.655 211.685,-272.923 192.599,-422.311 z"
   id="path1049"
   style="fill:#15304f;fill-opacity:1;stroke:none"
   inkscape:connector-curvature="0" />
		<path
   d="m 2319.562,1784.373 c 67.984,66.106 49.556,575.534 -455.449,704.963 0,0 -201.498,64.398 -354.49,-55.349 201.174,25.111 498.821,-106.314 617.34,-227.303 131.909,-134.655 211.685,-272.923 192.599,-422.311 z"
   id="path1051"
   style="fill:#5f96d3;fill-opacity:1;stroke:none"
   inkscape:connector-curvature="0" />
		<path
   d="m 947.427,945.126 c 251.781,-104.964 473.12,-102.836 658.46,-50.581 0,0 -8.138,17.765 -24.361,13.907 -5.711,-1.357 1.667,12.11 26.509,40.646 -188.827,-76.332 -414.26,-62.7 -660.608,-3.972 z"
   id="path1053"
   style="fill:#15304f;fill-opacity:1;stroke:none"
   inkscape:connector-curvature="0" />
		<path
   id="beak"
   d="m 947.427,945.126 c 251.781,-104.964 473.12,-102.836 658.46,-50.581 0,0 -8.138,17.765 -24.361,13.907 -5.711,-1.357 1.667,12.11 26.509,40.646 -188.827,-76.332 -414.26,-62.7 -660.608,-3.972 z"
   style="fill:#2a62a1;fill-opacity:1;stroke:none;stroke-width:1.45430005"
   inkscape:connector-curvature="0" />
		<path
   class="blue"
   d="m 2072.565,1258.561 c 0,0 -40.71,-39.82 -105.351,-69.183 -32.318,-14.681 -73.917,-29.034 -112.812,-29.92 -47.728,-1.085 -90.031,-8.288 -139.967,30.381 -161.914,198.937 48.743,442.226 554.504,543.472 -53.728,-4.627 -636.817,-584.716 -196.374,-474.75 z"
   id="path1056"
   style="fill:#15304f;fill-opacity:1;stroke:none"
   inkscape:connector-curvature="0" />
		
		<path
   class="blue"
   d="m 2089,1250.758 c 0,0 6.621,-47.435 31.076,-105.404 24.456,-57.972 69.361,-122.52 135.318,-108.428 99.035,38.683 198.1,202.659 144.854,504.171 -27.158,96.066 -92.941,186.513 -92.941,186.513 11.774,2.201 -14.852,-880.663 -218.307,-476.852 z"
   id="path1060"
   style="fill:#15304f;fill-opacity:1;stroke:none"
   inkscape:connector-curvature="0" />
		
		<path
   class="purple"
   d="m 2093.633,1281.527 c -180.681,-66.114 -247.607,81.789 206.231,465.208 -9.578,-211.528 -48.209,-785.232 -206.231,-465.208 z"
   id="path1064"
   style="fill:#15304f;fill-opacity:1;stroke:none"
   inkscape:connector-curvature="0" />
		
	</g>
	<path
   id="name"
   aria-label="Ada"
   data-name="Ada"
   d="M 460.61262,2491.5276 V 2352.9571 H 304.80578 l -83.60687,114.4933 c -12.17275,17.3777 -16.65358,26.4363 -18.15535,34.3866 -3.48388,18.4353 10.71177,30.7812 36.3823,30.7812 3.77572,0 12.25523,2.6881 10.96009,12.0441 -2.0519,14.8165 -13.66636,11.6742 -13.66636,11.6742 -32.07729,-2.1715 -62.01749,-3.6207 -90.70787,-3.6207 -21.89572,0 -56.324906,7.2188 -62.251316,3.5718 -2.735266,-10.9411 -0.305429,-20.3069 8.205798,-23.4781 49.691568,2.9636 63.773028,-33.4948 97.354808,-77.6642 l 307.61591,-420.8838 c 7.57047,-8.3454 22.8256,-10.246 23.33768,7.3067 v 441.6349 c 0.0508,37.6521 20.42929,46.3708 49.23659,48.8505 5.95451,1.2978 8.9653,2.4389 9.15744,7.0584 0.38155,9.1574 -3.51198,17.6659 -9.92055,17.5517 -31.32142,-2.1715 -60.33174,-3.9479 -92.04107,-3.9479 -23.32952,0 -47.94057,3.6697 -70.67554,5.0283 -4.86058,0.2899 -6.9152,-3.1431 -6.55993,-8.0002 0.53292,-7.2885 3.44311,-14.8382 10.46616,-16.1858 l 26.54603,-5.1026 c 15.56057,-2.5186 24.12889,-23.0911 24.12889,-36.9279 z m -0.39515,-169.6354 V 2141.806 l -132.59424,180.0862 z m 453.33725,-243.4169 c 3.15671,-11.0489 -0.92353,-20.8372 -5.78774,-22.9752 l -20.33867,-7.1047 c -2.08362,-0.7132 -3.4875,-2.8493 -3.51379,-5.6988 -0.0399,-4.2752 4.76814,-14.4504 15.29048,-16.9056 0,0 19.82388,-2.7498 33.34614,-5.5005 13.52134,-2.7506 37.49344,-11.4149 37.49344,-11.4149 5.07991,-1.2399 9.70848,3.2581 8.61455,8.3716 l -116.53249,454.5073 c -1.99752,8.5474 -2.65641,15.7337 -2.65007,16.4469 0.0789,8.5475 4.48447,12.8207 11.40601,12.8207 13.84219,0 35.88836,-32.0283 61.68216,-63.7602 3.9887,-1.8952 14.47478,8.165 13.54672,13.7325 -24.30925,42.1238 -47.47019,69.8988 -77.0107,91.1139 -20.41299,14.6596 -37.78437,11.4413 -49.63266,-0.7033 -4.1464,-5.9237 -9.44292,-24.5413 -5.29562,-42.906 l 14.77389,-70.5378 c -46.37446,74.793 -102.1882,124.4029 -146.02859,125.0999 -33.50836,0.5329 -59.06198,-34.7908 -60.155,-79.8194 -1.68485,-69.4066 31.19545,-127.5786 73.59388,-175.5554 32.18515,-36.4195 77.1122,-65.7099 120.71604,-65.7099 19.37888,0 39.59429,5.2059 54.26394,19.8756 z m -203.69846,433.6248 c 24.57661,0 47.64239,-22.879 73.32017,-57.3789 35.63368,-47.879 64.52255,-107.2863 67.76445,-140.1357 3.52467,-35.7135 -9.81814,-54.409 -30.59002,-55.6126 -28.65323,-1.6595 -54.27029,19.92 -84.68903,58.3895 -36.48924,46.0237 -52.76036,86.421 -57.07896,131.0716 -4.05214,41.9027 6.57805,63.6661 31.27339,63.6661 z m 557.87194,-55.7566 c -52.0816,78.6538 -87.9419,95.2856 -108.9313,94.8017 -32.8802,-0.7586 -26.5759,-43.8377 -21.7516,-66.4776 3.2882,-15.4282 11.8873,-46.1795 11.8873,-46.1795 -65.9301,90.0127 -120.1885,115.9407 -151.36135,114.2141 -28.53902,-1.5797 -39.62148,-21.2024 -35.59924,-63.0352 4.12013,-42.8526 34.19083,-103.3764 78.03489,-146.0141 67.3384,-65.4851 113.0304,-85.6779 173.8779,-81.565 l 11.7676,-23.828 c 4.3765,-7.942 5.2656,-9.6921 14.7938,-9.6921 10.2079,0 24.195,3.5654 23.9758,9.5226 -0.2203,5.9564 -9.1784,30.3536 -12.9233,39.6188 l -26.0983,66.9434 c -9.799,25.8119 -9.5353,25.8789 -30.3508,92.0646 -5.1787,14.1784 -9.1646,38.7577 -9.8851,52.9452 -0.2194,5.9572 3.0153,11.2193 7.0982,11.3217 10.6293,0.2655 23.6966,-9.9885 60.1007,-59.1472 2.8249,-3.3397 4.4037,-4.0431 7.7916,-0.9063 4.3032,3.986 9.9522,12.8108 7.5732,15.4129 z m -106.06,-154.9985 c -19.1858,0 -44.1667,8.1841 -81.3158,42.8272 -33.937,31.6467 -65.9753,80.6577 -71.0335,121.1257 -2.573,20.587 3.1169,35.5965 18.4635,37.4327 29.5922,3.541 71.2448,-46.9218 101.3843,-83.4002 32.0764,-38.8212 59.5143,-83.7556 59.5143,-98.8666 0,-16.5974 -9.9587,-19.1188 -27.0128,-19.1188 z"
   style="fill:#282828;fill-opacity:1;stroke:none;stroke-width:0.90631741"
   inkscape:connector-curvature="0" />
	<g
   aria-label="Programming WIKIBOOK"
   style="font-size:184.97814941px;font-family:'DejaVu Sans', DejaVuSans, sans-serif;letter-spacing:2.37928152;fill:#15304f;fill-opacity:1;stroke:none;stroke-width:1.15611339"
   id="slogan"><path
     d="m 200.29413,2637.3713 q 0,7.5471 -2.88566,14.6503 -2.66368,7.1031 -9.10092,14.2063 -6.21527,6.8812 -18.6458,11.0987 -12.43053,4.2175 -29.52251,4.2175 -13.09645,0 -20.42159,-1.7758 l -11.76461,42.8409 q -2.66368,9.5449 -2.66368,12.8745 0,5.5494 2.21974,7.1032 2.44171,1.5538 12.87447,3.1076 v 3.5516 H 66 v -3.5516 q 9.766846,-1.9978 12.430531,-4.2175 2.885659,-2.4417 5.549344,-12.2085 l 26.192905,-94.3389 q 3.55158,-12.2086 3.55158,-17.7579 0,-4.6614 -3.55158,-6.2153 -3.32961,-1.7758 -13.5404,-3.1076 v -3.5516 h 56.82529 q 22.64132,0 34.6279,8.657 12.20856,8.435 12.20856,24.4171 z m -22.8633,0 q 0,-12.4305 -6.43724,-19.3117 -6.21526,-7.1032 -23.30724,-7.1032 -8.43501,0 -10.2108,6.2153 l -15.76013,55.0495 q 7.5471,1.1099 11.54263,1.1099 21.30948,0 32.63015,-7.7691 11.54263,-7.7691 11.54263,-28.1907 z"
     style="font-style:italic;font-variant:normal;font-weight:normal;font-stretch:normal;font-size:221.97377014px;font-family:FreeSerif;-inkscape-font-specification:'FreeSerif, Italic';font-variant-ligatures:normal;font-variant-caps:normal;font-variant-numeric:normal;font-feature-settings:normal;text-align:start;writing-mode:lr-tb;text-anchor:start;fill:#282828;fill-opacity:1;stroke-width:1.15611339"
     id="path973" /><path
     d="m 267.26772,2673.775 q -4.2175,0 -5.99329,-1.9978 -1.77579,-1.9977 -2.66369,-3.9955 -0.88789,-1.9977 -2.88566,-1.9977 -5.99329,0 -17.31395,19.3117 -7.54711,12.6525 -12.20856,24.1951 -4.66145,11.5427 -13.31842,39.9553 h -16.87001 l 17.97988,-64.8163 q 3.55158,-12.8745 3.55158,-18.2019 0,-6.2153 -7.76909,-6.2153 -2.21973,0 -7.5471,1.1099 v -3.7735 q 9.76684,-1.5539 34.40593,-5.9933 l 0.66592,0.4439 -11.76461,48.1683 q 2.21974,-5.7713 5.77132,-12.8745 3.77355,-7.1031 9.3229,-15.7601 5.54934,-8.657 12.6525,-14.2063 7.10316,-5.7713 13.76238,-5.7713 4.66145,0 7.5471,3.3296 2.88566,3.1076 2.88566,8.213 0,10.8767 -10.21079,10.8767 z"
     style="font-style:italic;font-variant:normal;font-weight:normal;font-stretch:normal;font-size:221.97377014px;font-family:FreeSerif;-inkscape-font-specification:'FreeSerif, Italic';font-variant-ligatures:normal;font-variant-caps:normal;font-variant-numeric:normal;font-feature-settings:normal;text-align:start;writing-mode:lr-tb;text-anchor:start;fill:#282828;fill-opacity:1;stroke-width:1.15611339"
     id="path975" /><path
     d="m 374.41835,2682.432 q 0,14.6503 -8.65697,30.6324 -8.43501,15.7601 -23.97317,27.3027 -15.53816,11.3207 -32.63014,11.3207 -15.09422,0 -23.97317,-8.213 -8.65698,-8.435 -8.65698,-22.8633 0,-26.1929 20.64356,-47.7244 20.64356,-21.5314 45.50462,-21.5314 14.20633,0 22.8633,8.6569 8.87895,8.657 8.87895,22.4194 z m -61.93068,64.5944 q 11.76461,0 21.9754,-12.2086 10.43277,-12.2086 15.76014,-28.1907 5.54935,-16.2041 5.54935,-29.7445 0,-9.5448 -4.43948,-15.0942 -4.2175,-5.7713 -11.32066,-5.7713 -11.09869,0 -21.75343,11.7646 -10.65474,11.7646 -16.87001,28.1907 -6.21526,16.426 -6.21526,30.8543 0,9.101 4.66145,14.6503 4.88342,5.5494 12.6525,5.5494 z"
     style="font-style:italic;font-variant:normal;font-weight:normal;font-stretch:normal;font-size:221.97377014px;font-family:FreeSerif;-inkscape-font-specification:'FreeSerif, Italic';font-variant-ligatures:normal;font-variant-caps:normal;font-variant-numeric:normal;font-feature-settings:normal;text-align:start;writing-mode:lr-tb;text-anchor:start;fill:#282828;fill-opacity:1;stroke-width:1.15611339"
     id="path977" /><path
     d="m 437.1744,2651.3557 q 7.54711,0 13.09645,1.9977 5.54934,1.9978 8.21303,3.9956 2.88566,1.9977 3.99553,1.9977 h 13.5404 v 8.657 h -11.09869 q 1.99776,6.6592 1.99776,12.4305 0,13.0965 -13.09645,24.1952 -12.87448,11.0987 -27.96869,11.0987 -3.10764,0 -5.77132,-0.444 -2.44171,-0.4439 -2.66369,-0.4439 -2.21974,0 -5.10539,3.3296 -2.88566,3.3296 -2.88566,5.7713 0,3.5516 7.32513,6.6592 7.54711,2.8857 16.20409,5.3274 8.87895,2.4417 16.20408,9.3229 7.54711,6.8812 7.54711,17.3139 0,14.4283 -12.87448,23.3073 -12.87448,9.1009 -33.74001,9.1009 -16.87001,0 -27.0808,-6.8812 -9.98882,-6.8812 -9.98882,-18.4238 0,-7.5471 4.88342,-12.8745 4.66145,-5.3274 21.08751,-16.2041 -5.99329,-4.4395 -5.99329,-8.657 0,-3.9955 3.55158,-7.991 3.77355,-3.9955 13.5404,-10.6548 -9.54487,-4.4394 -13.5404,-9.7668 -3.99553,-5.5493 -3.99553,-14.2063 0,-15.7602 13.09645,-26.8589 13.09646,-11.0986 31.52028,-11.0986 z m -33.07409,91.6751 q -0.8879,0.444 -2.21974,1.3319 -1.33184,0.6659 -4.66145,3.1076 -3.10763,2.2197 -5.54934,4.8834 -2.44172,2.6637 -4.43948,6.6592 -1.99776,4.2175 -1.99776,8.435 0,10.6548 7.32513,16.6481 7.54711,5.9933 20.86553,5.9933 12.87448,0 21.30949,-5.9933 8.65697,-5.9933 8.65697,-14.8723 0,-5.9933 -4.43947,-10.4327 -4.2175,-4.4395 -8.87895,-6.4373 -4.66145,-1.9977 -13.5404,-4.8834 -8.87895,-2.8857 -12.43053,-4.4395 z m 19.08974,-31.9642 q 11.32066,0 18.6458,-12.8745 7.54711,-13.0964 7.54711,-26.1929 0,-15.7601 -12.43054,-15.7601 -10.87671,0 -19.08974,11.5426 -7.99106,11.3207 -7.99106,26.6369 0,7.7691 3.55158,12.2085 3.55158,4.4395 9.76685,4.4395 z"
     style="font-style:italic;font-variant:normal;font-weight:normal;font-stretch:normal;font-size:221.97377014px;font-family:FreeSerif;-inkscape-font-specification:'FreeSerif, Italic';font-variant-ligatures:normal;font-variant-caps:normal;font-variant-numeric:normal;font-feature-settings:normal;text-align:start;writing-mode:lr-tb;text-anchor:start;fill:#282828;fill-opacity:1;stroke-width:1.15611339"
     id="path979" /><path
     d="m 553.86986,2673.775 q -4.21751,0 -5.9933,-1.9978 -1.77579,-1.9977 -2.66368,-3.9955 -0.8879,-1.9977 -2.88566,-1.9977 -5.99329,0 -17.31396,19.3117 -7.5471,12.6525 -12.20855,24.1951 -4.66145,11.5427 -13.31843,39.9553 h -16.87001 l 17.97988,-64.8163 q 3.55158,-12.8745 3.55158,-18.2019 0,-6.2153 -7.76908,-6.2153 -2.21974,0 -7.54711,1.1099 v -3.7735 q 9.76685,-1.5539 34.40593,-5.9933 l 0.66593,0.4439 -11.76461,48.1683 q 2.21973,-5.7713 5.77131,-12.8745 3.77356,-7.1031 9.3229,-15.7601 5.54935,-8.657 12.65251,-14.2063 7.10316,-5.7713 13.76237,-5.7713 4.66145,0 7.54711,3.3296 2.88566,3.1076 2.88566,8.213 0,10.8767 -10.21079,10.8767 z"
     style="font-style:italic;font-variant:normal;font-weight:normal;font-stretch:normal;font-size:221.97377014px;font-family:FreeSerif;-inkscape-font-specification:'FreeSerif, Italic';font-variant-ligatures:normal;font-variant-caps:normal;font-variant-numeric:normal;font-feature-settings:normal;text-align:start;writing-mode:lr-tb;text-anchor:start;fill:#282828;fill-opacity:1;stroke-width:1.15611339"
     id="path981" /><path
     d="m 642.81865,2740.1452 q 0.88789,0 2.21973,-0.666 1.33185,-0.8878 3.32961,-2.6636 2.21974,-1.7758 3.55158,-3.1077 1.33184,-1.5538 4.2175,-4.4394 3.10764,-3.1077 4.43948,-4.4395 l 2.66368,2.2197 q -12.20855,15.0942 -18.20185,19.7557 -5.99329,4.6614 -12.6525,4.6614 -8.87895,0 -8.87895,-9.1009 0,-5.5493 5.1054,-25.527 -14.65027,20.6436 -23.7512,27.7467 -9.10092,7.1032 -20.86553,7.1032 -10.65474,0 -16.64804,-6.4372 -5.99329,-6.6592 -5.99329,-18.2019 0,-17.092 9.54488,-34.8499 9.76684,-17.7579 24.63908,-29.3005 15.09422,-11.5426 29.30054,-11.5426 14.87224,0 17.7579,12.8744 l 2.44171,-10.6547 0.66593,-0.6659 13.5404,-1.5538 1.55381,0.6659 q -0.22197,0.8879 -1.33184,4.6614 -19.75567,72.3635 -19.75567,80.5765 0,2.8857 3.10764,2.8857 z m -4.2175,-70.3657 q 0,-6.2153 -3.77356,-9.7669 -3.55158,-3.7735 -9.76684,-3.7735 -12.20856,0 -23.30725,14.2063 -10.87672,14.2063 -16.42606,29.7445 -5.32737,15.3162 -5.32737,23.9732 0,7.5471 3.55158,12.2085 3.55158,4.4395 9.3229,4.4395 10.43277,0 21.30948,-11.9866 10.87672,-12.2086 17.53593,-28.8566 6.88119,-16.648 6.88119,-30.1884 z"
     style="font-style:italic;font-variant:normal;font-weight:normal;font-stretch:normal;font-size:221.97377014px;font-family:FreeSerif;-inkscape-font-specification:'FreeSerif, Italic';font-variant-ligatures:normal;font-variant-caps:normal;font-variant-numeric:normal;font-feature-settings:normal;text-align:start;writing-mode:lr-tb;text-anchor:start;fill:#282828;fill-opacity:1;stroke-width:1.15611339"
     id="path983" /><path
     d="m 801.68924,2737.2595 q 0,3.5516 2.88566,3.5516 2.88566,0 6.21527,-3.1076 3.32961,-3.3296 12.6525,-14.4283 l 3.32961,2.6636 q -8.65698,11.9866 -16.42606,18.6458 -7.54711,6.6593 -16.64803,6.6593 -8.87895,0 -8.87895,-10.2108 0,-2.8857 2.88566,-14.6503 l 12.87448,-51.054 q 1.55381,-5.5493 1.55381,-7.7691 0,-1.7757 -1.33184,-3.1076 -1.33184,-1.5538 -3.10763,-1.5538 -4.88343,0 -12.65251,6.8812 -7.54711,6.6592 -15.76014,17.9799 -8.435,11.7646 -13.31842,23.7512 -4.66145,11.7646 -11.32066,37.7355 h -16.64804 q 21.08751,-78.3567 21.08751,-80.7985 0,-5.5493 -4.43947,-5.5493 -5.77132,0 -14.87225,8.657 -9.10092,8.435 -18.42382,22.6413 -5.77132,8.657 -9.76685,18.8678 -3.77355,9.9888 -11.76461,36.1817 h -16.64803 q 2.44171,-9.5449 8.65698,-31.7423 13.09645,-46.1705 13.09645,-50.8319 0,-4.8835 -8.65698,-4.8835 h -5.54934 v -3.5516 q 21.75343,-3.9955 35.5158,-6.8811 l 0.66592,0.4439 -12.87447,46.3925 q 29.74448,-46.8364 49.50015,-46.8364 5.54934,0 9.10092,3.7735 3.55158,3.7736 3.55158,9.5449 0,6.6592 -8.87895,33.74 17.31395,-27.3028 29.52251,-37.7355 10.65474,-9.3229 19.75567,-9.3229 5.54934,0 9.3229,3.9955 3.77355,3.9955 3.77355,9.9888 0,3.5516 -0.66592,6.2153 l -15.09422,55.7154 q -2.21974,8.8789 -2.21974,9.9888 z"
     style="font-style:italic;font-variant:normal;font-weight:normal;font-stretch:normal;font-size:221.97377014px;font-family:FreeSerif;-inkscape-font-specification:'FreeSerif, Italic';font-variant-ligatures:normal;font-variant-caps:normal;font-variant-numeric:normal;font-feature-settings:normal;text-align:start;writing-mode:lr-tb;text-anchor:start;fill:#282828;fill-opacity:1;stroke-width:1.15611339"
     id="path985" /><path
     d="m 964.99918,2737.2595 q 0,3.5516 2.88566,3.5516 2.88566,0 6.21527,-3.1076 3.3296,-3.3296 12.6525,-14.4283 l 3.32961,2.6636 q -8.65698,11.9866 -16.42606,18.6458 -7.54711,6.6593 -16.64803,6.6593 -8.87896,0 -8.87896,-10.2108 0,-2.8857 2.88566,-14.6503 l 12.87448,-51.054 q 1.55382,-5.5493 1.55382,-7.7691 0,-1.7757 -1.33184,-3.1076 -1.33185,-1.5538 -3.10764,-1.5538 -4.88342,0 -12.6525,6.8812 -7.54711,6.6592 -15.76014,17.9799 -8.435,11.7646 -13.31843,23.7512 -4.66144,11.7646 -11.32066,37.7355 h -16.64803 q 21.08751,-78.3567 21.08751,-80.7985 0,-5.5493 -4.43948,-5.5493 -5.77132,0 -14.87224,8.657 -9.10092,8.435 -18.42382,22.6413 -5.77132,8.657 -9.76685,18.8678 -3.77355,9.9888 -11.76461,36.1817 h -16.64803 q 2.44171,-9.5449 8.65698,-31.7423 13.09645,-46.1705 13.09645,-50.8319 0,-4.8835 -8.65698,-4.8835 h -5.54934 v -3.5516 q 21.75343,-3.9955 35.5158,-6.8811 l 0.66592,0.4439 -12.87448,46.3925 q 29.74449,-46.8364 49.50015,-46.8364 5.54935,0 9.10093,3.7735 3.55158,3.7736 3.55158,9.5449 0,6.6592 -8.87895,33.74 17.31395,-27.3028 29.52251,-37.7355 10.65474,-9.3229 19.75566,-9.3229 5.54935,0 9.3229,3.9955 3.77356,3.9955 3.77356,9.9888 0,3.5516 -0.66592,6.2153 l -15.09422,55.7154 q -2.21974,8.8789 -2.21974,9.9888 z"
     style="font-style:italic;font-variant:normal;font-weight:normal;font-stretch:normal;font-size:221.97377014px;font-family:FreeSerif;-inkscape-font-specification:'FreeSerif, Italic';font-variant-ligatures:normal;font-variant-caps:normal;font-variant-numeric:normal;font-feature-settings:normal;text-align:start;writing-mode:lr-tb;text-anchor:start;fill:#282828;fill-opacity:1;stroke-width:1.15611339"
     id="path987" /><path
     d="m 1025.9792,2741.255 q 5.1054,0 18.2019,-17.3139 l 2.8856,2.4417 q -9.5449,13.9843 -16.426,19.7557 -6.8812,5.5493 -14.6503,5.5493 -10.2108,0 -10.2108,-12.6525 0,-6.4372 4.8834,-24.1951 l 10.6548,-39.2894 q 1.9977,-6.6592 1.9977,-9.7668 0,-3.3297 -2.6637,-4.2175 -2.4417,-0.8879 -11.3206,-1.1099 v -3.5516 q 10.2108,-0.8879 35.5158,-5.5493 l 0.6659,0.4439 -20.8655,76.359 q -2.2198,7.991 -2.2198,9.7668 0,1.1099 1.1099,2.2198 1.1099,1.1098 2.4417,1.1098 z m 8.879,-133.8501 q 3.1076,-3.3297 7.5471,-3.3297 4.4394,0 7.7691,3.7736 3.3296,3.5516 3.3296,8.435 0,4.6615 -3.3296,7.9911 -3.1077,3.3296 -7.5472,3.3296 -4.8834,0 -7.769,-3.1077 -2.8857,-3.3296 -2.8857,-8.6569 0,-5.1054 2.8857,-8.435 z"
     style="font-style:italic;font-variant:normal;font-weight:normal;font-stretch:normal;font-size:221.97377014px;font-family:FreeSerif;-inkscape-font-specification:'FreeSerif, Italic';font-variant-ligatures:normal;font-variant-caps:normal;font-variant-numeric:normal;font-feature-settings:normal;text-align:start;writing-mode:lr-tb;text-anchor:start;fill:#282828;fill-opacity:1;stroke-width:1.15611339"
     id="path989" /><path
     d="m 1155.7711,2723.2752 3.1076,2.8856 q -11.5426,15.3162 -17.5359,20.1996 -5.9933,4.8835 -13.5404,4.8835 -5.5493,0 -7.991,-2.8857 -2.4418,-2.8857 -2.4418,-9.1009 0,-3.3296 3.5516,-16.6481 l 9.7669,-36.6256 q 3.1076,-11.9866 3.1076,-16.87 0,-6.4373 -5.3274,-6.4373 -12.2085,0 -32.8521,31.5203 -7.3251,11.3207 -10.8767,20.1996 -3.5516,8.657 -11.3207,34.8499 h -16.648 l 21.3095,-77.6908 q 0.4439,-2.2198 0.4439,-3.7736 0,-3.3296 -2.8856,-4.4395 -2.8857,-1.3318 -11.3207,-1.5538 v -3.5516 q 22.4194,-4.2175 35.9598,-6.8811 l 0.6659,0.4439 -14.8723,48.3903 q 17.092,-26.6369 28.6347,-37.7356 11.7646,-11.0986 22.4193,-11.0986 6.4372,0 10.4328,3.7735 4.2175,3.7736 4.2175,9.7669 0,5.7713 -1.9978,12.6525 l -12.6525,45.7266 q -3.1076,12.4305 -3.1076,13.9843 0,1.3319 1.1098,2.4417 1.1099,1.1099 2.4418,1.1099 3.9955,0 18.2018,-17.5359 z"
     style="font-style:italic;font-variant:normal;font-weight:normal;font-stretch:normal;font-size:221.97377014px;font-family:FreeSerif;-inkscape-font-specification:'FreeSerif, Italic';font-variant-ligatures:normal;font-variant-caps:normal;font-variant-numeric:normal;font-feature-settings:normal;text-align:start;writing-mode:lr-tb;text-anchor:start;fill:#282828;fill-opacity:1;stroke-width:1.15611339"
     id="path991" /><path
     d="m 1224.7421,2651.3557 q 7.5471,0 13.0965,1.9977 5.5493,1.9978 8.213,3.9956 2.8857,1.9977 3.9955,1.9977 h 13.5404 v 8.657 h -11.0987 q 1.9978,6.6592 1.9978,12.4305 0,13.0965 -13.0965,24.1952 -12.8744,11.0987 -27.9686,11.0987 -3.1077,0 -5.7714,-0.444 -2.4417,-0.4439 -2.6636,-0.4439 -2.2198,0 -5.1054,3.3296 -2.8857,3.3296 -2.8857,5.7713 0,3.5516 7.3251,6.6592 7.5471,2.8857 16.2041,5.3274 8.879,2.4417 16.2041,9.3229 7.5471,6.8812 7.5471,17.3139 0,14.4283 -12.8745,23.3073 -12.8744,9.1009 -33.74,9.1009 -16.87,0 -27.0808,-6.8812 -9.9888,-6.8812 -9.9888,-18.4238 0,-7.5471 4.8834,-12.8745 4.6615,-5.3274 21.0875,-16.2041 -5.9933,-4.4395 -5.9933,-8.657 0,-3.9955 3.5516,-7.991 3.7736,-3.9955 13.5404,-10.6548 -9.5449,-4.4394 -13.5404,-9.7668 -3.9955,-5.5493 -3.9955,-14.2063 0,-15.7602 13.0964,-26.8589 13.0965,-11.0986 31.5203,-11.0986 z m -33.0741,91.6751 q -0.8879,0.444 -2.2197,1.3319 -1.3319,0.6659 -4.6615,3.1076 -3.1076,2.2197 -5.5493,4.8834 -2.4417,2.6637 -4.4395,6.6592 -1.9977,4.2175 -1.9977,8.435 0,10.6548 7.3251,16.6481 7.5471,5.9933 20.8655,5.9933 12.8745,0 21.3095,-5.9933 8.657,-5.9933 8.657,-14.8723 0,-5.9933 -4.4395,-10.4327 -4.2175,-4.4395 -8.8789,-6.4373 -4.6615,-1.9977 -13.5404,-4.8834 -8.879,-2.8857 -12.4306,-4.4395 z m 19.0898,-31.9642 q 11.3206,0 18.6458,-12.8745 7.5471,-13.0964 7.5471,-26.1929 0,-15.7601 -12.4306,-15.7601 -10.8767,0 -19.0897,11.5426 -7.9911,11.3207 -7.9911,26.6369 0,7.7691 3.5516,12.2085 3.5516,4.4395 9.7669,4.4395 z"
     style="font-style:italic;font-variant:normal;font-weight:normal;font-stretch:normal;font-size:221.97377014px;font-family:FreeSerif;-inkscape-font-specification:'FreeSerif, Italic';font-variant-ligatures:normal;font-variant-caps:normal;font-variant-numeric:normal;font-feature-settings:normal;text-align:start;writing-mode:lr-tb;text-anchor:start;fill:#282828;fill-opacity:1;stroke-width:1.15611339"
     id="path993" /><path
     d="m 1344.866,2587.4263 h 35.984 l 25.1455,117.5985 25.0371,-117.5985 h 36.2008 l 24.9287,117.5985 25.1454,-117.5985 h 35.7673 l -34.3583,161.8198 h -43.3542 l -26.4461,-123.0177 -26.1209,123.0177 h -43.3543 z"
     style="font-style:normal;font-variant:normal;font-weight:bold;font-stretch:semi-condensed;font-size:221.97377014px;font-family:'DejaVu Sans', DejaVuSans, sans-serif;-inkscape-font-specification:'DejaVu Sans, DejaVuSans, sans-serif, Bold Semi-Condensed';font-variant-ligatures:normal;font-variant-caps:normal;font-variant-numeric:normal;font-feature-settings:normal;text-align:start;writing-mode:lr-tb;text-anchor:start;stroke-width:1.15611339"
     id="path995" /><path
     d="m 1579.9493,2587.4263 h 37.6098 v 161.8198 h -37.6098 z"
     style="font-style:normal;font-variant:normal;font-weight:bold;font-stretch:semi-condensed;font-size:221.97377014px;font-family:'DejaVu Sans', DejaVuSans, sans-serif;-inkscape-font-specification:'DejaVu Sans, DejaVuSans, sans-serif, Bold Semi-Condensed';font-variant-ligatures:normal;font-variant-caps:normal;font-variant-numeric:normal;font-feature-settings:normal;text-align:start;writing-mode:lr-tb;text-anchor:start;stroke-width:1.15611339"
     id="path997" /><path
     d="m 1656.5727,2587.4263 h 37.6098 v 59.0702 l 54.0844,-59.0702 h 43.6794 l -70.2339,76.6287 77.3874,85.1911 h -47.0394 l -57.8779,-63.7308 v 63.7308 h -37.6098 z"
     style="font-style:normal;font-variant:normal;font-weight:bold;font-stretch:semi-condensed;font-size:221.97377014px;font-family:'DejaVu Sans', DejaVuSans, sans-serif;-inkscape-font-specification:'DejaVu Sans, DejaVuSans, sans-serif, Bold Semi-Condensed';font-variant-ligatures:normal;font-variant-caps:normal;font-variant-numeric:normal;font-feature-settings:normal;text-align:start;writing-mode:lr-tb;text-anchor:start;stroke-width:1.15611339"
     id="path999" /><path
     d="m 1813.7266,2587.4263 h 37.6098 v 161.8198 h -37.6098 z"
     style="font-style:normal;font-variant:normal;font-weight:bold;font-stretch:semi-condensed;font-size:221.97377014px;font-family:'DejaVu Sans', DejaVuSans, sans-serif;-inkscape-font-specification:'DejaVu Sans, DejaVuSans, sans-serif, Bold Semi-Condensed';font-variant-ligatures:normal;font-variant-caps:normal;font-variant-numeric:normal;font-feature-settings:normal;text-align:start;writing-mode:lr-tb;text-anchor:start;stroke-width:1.15611339"
     id="path1001" /><path
     d="m 1948.6615,2650.0732 q 8.8876,0 13.4398,-4.3354 4.6606,-4.3354 4.6606,-12.7895 0,-8.3457 -4.6606,-12.6811 -4.5522,-4.4438 -13.4398,-4.4438 h -20.7017 v 34.2498 z m 1.3006,70.7759 q 11.3805,0 17.0165,-5.3109 5.7445,-5.3109 5.7445,-16.0411 0,-10.5134 -5.7445,-15.7159 -5.636,-5.3109 -17.0165,-5.3109 h -22.0023 v 42.3788 z m 34.9002,-58.2031 q 12.1392,3.9019 18.7507,14.4153 6.6115,10.5134 6.6115,25.7957 0,23.4113 -14.3069,34.9002 -14.1985,11.4889 -43.2459,11.4889 H 1890.35 v -161.8198 h 56.3605 q 30.348,0 43.8962,10.1883 13.6566,10.1882 13.6566,32.6241 0,11.814 -4.9857,20.1597 -4.8774,8.2373 -14.4153,12.2476 z"
     style="font-style:normal;font-variant:normal;font-weight:bold;font-stretch:semi-condensed;font-size:221.97377014px;font-family:'DejaVu Sans', DejaVuSans, sans-serif;-inkscape-font-specification:'DejaVu Sans, DejaVuSans, sans-serif, Bold Semi-Condensed';font-variant-ligatures:normal;font-variant-caps:normal;font-variant-numeric:normal;font-feature-settings:normal;text-align:start;writing-mode:lr-tb;text-anchor:start;fill:#2a62a1;fill-opacity:1;stroke-width:1.15611339"
     id="path1003" /><path
     d="m 2111.4515,2614.7395 q -17.1249,0 -26.6628,14.0902 -9.4296,14.0901 -9.4296,39.6691 0,25.4706 9.4296,39.5608 9.5379,14.0901 26.6628,14.0901 17.2333,0 26.6629,-14.0901 9.5379,-14.0902 9.5379,-39.5608 0,-25.579 -9.5379,-39.6691 -9.4296,-14.0902 -26.6629,-14.0902 z m 0,-30.2396 q 35.117,0 54.9515,22.3275 19.943,22.3274 19.943,61.6714 0,39.2356 -19.943,61.563 -19.8345,22.3275 -54.9515,22.3275 -35.0085,0 -54.9515,-22.3275 -19.943,-22.3274 -19.943,-61.563 0,-39.344 19.943,-61.6714 19.943,-22.3275 54.9515,-22.3275 z"
     style="font-style:normal;font-variant:normal;font-weight:bold;font-stretch:semi-condensed;font-size:221.97377014px;font-family:'DejaVu Sans', DejaVuSans, sans-serif;-inkscape-font-specification:'DejaVu Sans, DejaVuSans, sans-serif, Bold Semi-Condensed';font-variant-ligatures:normal;font-variant-caps:normal;font-variant-numeric:normal;font-feature-settings:normal;text-align:start;writing-mode:lr-tb;text-anchor:start;fill:#2a62a1;fill-opacity:1;stroke-width:1.15611339"
     id="path1006" /><path
     d="m 2283.5627,2614.7395 q -17.1249,0 -26.6628,14.0902 -9.4296,14.0901 -9.4296,39.6691 0,25.4706 9.4296,39.5608 9.5379,14.0901 26.6628,14.0901 17.2333,0 26.6629,-14.0901 9.5379,-14.0902 9.5379,-39.5608 0,-25.579 -9.5379,-39.6691 -9.4296,-14.0902 -26.6629,-14.0902 z m 0,-30.2396 q 35.117,0 54.9515,22.3275 19.943,22.3274 19.943,61.6714 0,39.2356 -19.943,61.563 -19.8345,22.3275 -54.9515,22.3275 -35.0085,0 -54.9515,-22.3275 -19.9429,-22.3274 -19.9429,-61.563 0,-39.344 19.9429,-61.6714 19.943,-22.3275 54.9515,-22.3275 z"
     style="font-style:normal;font-variant:normal;font-weight:bold;font-stretch:semi-condensed;font-size:221.97377014px;font-family:'DejaVu Sans', DejaVuSans, sans-serif;-inkscape-font-specification:'DejaVu Sans, DejaVuSans, sans-serif, Bold Semi-Condensed';font-variant-ligatures:normal;font-variant-caps:normal;font-variant-numeric:normal;font-feature-settings:normal;text-align:start;writing-mode:lr-tb;text-anchor:start;fill:#2a62a1;fill-opacity:1;stroke-width:1.15611339"
     id="path1008" /><path
     d="m 2389.125,2587.4263 h 37.6098 v 59.0702 l 54.0845,-59.0702 h 43.6794 l -70.2339,76.6287 77.3873,85.1911 h -47.0393 l -57.878,-63.7308 v 63.7308 h -37.6098 z"
     style="font-style:normal;font-variant:normal;font-weight:bold;font-stretch:semi-condensed;font-size:221.97377014px;font-family:'DejaVu Sans', DejaVuSans, sans-serif;-inkscape-font-specification:'DejaVu Sans, DejaVuSans, sans-serif, Bold Semi-Condensed';font-variant-ligatures:normal;font-variant-caps:normal;font-variant-numeric:normal;font-feature-settings:normal;text-align:start;writing-mode:lr-tb;text-anchor:start;fill:#2a62a1;fill-opacity:1;stroke-width:1.15611339"
     id="path1010" /></g>

</svg>