<?xml version="1.0" encoding="UTF-8" standalone="no"?>
<!-- Created with Inkscape (http://www.inkscape.org/) -->

<svg
   version="1.1"
   id="svg276"
   width="136.69778"
   height="152.04298"
   viewBox="0 0 136.69778 152.04298"
   sodipodi:docname="asm.jpg"
   inkscape:export-filename="logos/vectors/asm.svg"
   inkscape:export-xdpi="96"
   inkscape:export-ydpi="96"
   xmlns:inkscape="http://www.inkscape.org/namespaces/inkscape"
   xmlns:sodipodi="http://sodipodi.sourceforge.net/DTD/sodipodi-0.dtd"
   xmlns="http://www.w3.org/2000/svg"
   xmlns:svg="http://www.w3.org/2000/svg">
  <defs
     id="defs280" />
  <sodipodi:namedview
     id="namedview278"
     pagecolor="#ffffff"
     bordercolor="#000000"
     borderopacity="0.25"
     inkscape:showpageshadow="2"
     inkscape:pageopacity="0.0"
     inkscape:pagecheckerboard="0"
     inkscape:deskcolor="#d1d1d1"
     showgrid="false" />
  <g
     inkscape:groupmode="layer"
     inkscape:label="Image"
     id="g282"
     transform="translate(-37.145375,-27.642323)">
    <path
       style="fill:#000000;stroke-width:0.32"
       d="m 52.172893,179.17468 c -1.51609,-0.82483 -1.58688,-1.31377 -1.66972,-11.53236 l -0.0778,-9.6 -5.96746,-0.16 c -5.28452,-0.14169 -6.04443,-0.22977 -6.64,-0.7696 l -0.67254,-0.60959 v -30.67354 c 0,-30.425078 0.005,-30.678041 0.64938,-31.2304 0.55052,-0.47208 1.56151,-0.581229 6.64,-0.716867 l 5.99062,-0.16 0.16,-32.106304 0.16,-32.106306 1.04505,-0.933695 1.04504,-0.933695 h 41.61085 c 35.619097,0 41.735267,0.0664 42.474947,0.461167 0.47526,0.253642 5.93908,5.573172 12.14182,11.821179 l 11.27771,11.360009 0.0823,21.218823 0.0823,21.218822 6.18649,0.16 c 5.65086,0.146147 6.22576,0.213779 6.64,0.781162 0.46006,0.630128 0.57396,7.633555 0.48175,29.618835 -0.0173,4.136 -0.0308,13.028 -0.0299,19.76 0.002,11.81449 -0.0206,12.26225 -0.63835,12.88 -0.591,0.59101 -1.06666,0.64 -6.21382,0.64 -3.06561,0 -5.80161,0.0874 -6.08,0.19424 -0.44592,0.17111 -0.50618,1.33114 -0.50618,9.74494 0,10.28983 -0.0826,10.87615 -1.64641,11.68482 -1.30129,0.67292 -105.288657,0.66156 -106.526047,-0.0117 z M 153.5515,165.42501 c 0.0664,-5.65642 -0.007,-7.39637 -0.32,-7.5951 -0.62862,-0.39899 -94.559947,-0.33625 -95.307187,0.0637 -0.58285,0.31193 -0.61896,0.73767 -0.61896,7.296 0,5.00082 0.10857,7.07331 0.38504,7.34978 0.29734,0.29734 11.24855,0.36658 48.079997,0.304 l 47.69496,-0.0811 z m -46.00808,-25.16467 c 5.45099,-0.88436 8.41933,-3.93733 8.39482,-8.63416 -0.013,-2.48293 -0.55717,-3.93545 -2.12447,-5.67026 -1.37571,-1.52275 -3.03275,-2.27877 -7.88832,-3.59901 -5.63586,-1.5324 -6.754567,-2.29905 -6.255637,-4.28695 0.30767,-1.22585 1.545847,-1.85523 3.994437,-2.03042 2.8707,-0.2054 4.23447,0.40861 5.16166,2.32394 0.36787,0.75991 0.84223,1.43507 1.05414,1.50037 0.21192,0.0653 1.41826,0.0668 2.68077,0.003 2.69068,-0.1353 2.83973,-0.31872 2.149,-2.64463 -0.62265,-2.09672 -2.50057,-4.15427 -4.69181,-5.14063 -1.46709,-0.66038 -2.16427,-0.75333 -5.67266,-0.75625 -3.81265,-0.003 -4.08921,0.0417 -5.904577,0.9578 -6.11165,3.08418 -6.03059,10.62969 0.14782,13.76052 0.85976,0.43568 3.190747,1.22908 5.179987,1.76312 5.68051,1.52503 6.33677,1.94169 6.33677,4.02329 0,2.194 -2.17277,3.65195 -5.44247,3.65195 -3.16557,0 -4.819577,-1.13078 -5.733827,-3.92 -0.38028,-1.16017 -0.44297,-1.19988 -1.88852,-1.19648 -0.82235,0.002 -2.03518,0.0928 -2.69518,0.20187 -1.04025,0.17194 -1.2,0.31299 -1.2,1.05947 0,2.66336 2.56481,6.38525 5.27952,7.66132 2.516517,1.1829 5.715897,1.52388 9.118547,0.97184 z m -37.437517,-3.49802 1.14404,-3.04 5.46241,-0.0874 c 4.49879,-0.0719 5.53147,-0.004 5.85388,0.38433 0.2153,0.25942 0.85782,1.66674 1.42781,3.12736 l 1.03634,2.65567 2.93748,0.092 c 2.73633,0.0858 2.93749,0.0491 2.93749,-0.5357 0,-0.69479 -10.41226,-26.83266 -10.94451,-27.47398 -0.46885,-0.56493 -5.49369,-0.55102 -5.9647,0.0165 -0.19116,0.23033 -1.15996,2.49833 -2.15289,5.04 -5.49691,14.07083 -8.4579,21.93236 -8.4579,22.45599 0,0.53545 0.25843,0.58158 2.78825,0.49769 l 2.78824,-0.0925 z m 3.3791,-8.28819 c -0.26469,-0.42828 3.06172,-9.35135 3.43917,-9.22553 0.38427,0.12808 3.42118,8.03755 3.42118,8.91027 0,0.55274 -0.28079,0.60345 -3.34112,0.60345 -1.83761,0 -3.42127,-0.12969 -3.51923,-0.28819 z m 52.544967,1.48819 c 0.0466,-5.412 0.20909,-9.84 0.36122,-9.84 0.15212,0 1.32294,4.212 2.60183,9.36 1.27889,5.148 2.45341,9.612 2.61005,9.92 0.23512,0.46231 0.72746,0.56 2.82228,0.56 2.09482,0 2.58716,-0.0977 2.82228,-0.56 0.15664,-0.308 1.33116,-4.772 2.61005,-9.92 1.27889,-5.148 2.44971,-9.36 2.60183,-9.36 0.15213,0 0.31467,4.428 0.36122,9.84 l 0.0846,9.84 h 2.56 2.56 l 0.0841,-13.76 c 0.0773,-12.65179 0.0402,-13.79221 -0.46116,-14.16 -0.35942,-0.26366 -1.76535,-0.4 -4.12493,-0.4 -2.47851,0 -3.67879,0.12305 -3.90194,0.4 -0.17725,0.22 -1.33621,4.26533 -2.57547,8.98963 -1.23926,4.72429 -2.33586,8.67229 -2.4369,8.77333 -0.10104,0.10104 -0.2568,0.11062 -0.34613,0.0213 -0.0893,-0.0893 -1.21958,-4.08739 -2.51166,-8.88458 -1.30854,-4.85828 -2.54786,-8.8479 -2.79758,-9.00601 -0.50285,-0.31837 -6.99545,-0.40132 -7.78217,-0.0994 -0.45076,0.17297 -0.50617,1.70849 -0.50617,14.02666 0,7.60784 0.10153,13.93396 0.22561,14.05805 0.12409,0.12408 1.31209,0.18408 2.64,0.13333 l 2.4144,-0.0923 z m 27.43538,-55.439997 v -19.2 l -4.96,-0.19319 c -6.25607,-0.243674 -8.22407,-0.894144 -11.2398,-3.715008 -3.19832,-2.991645 -4.1202,-5.660039 -4.1202,-11.925882 0,-2.962826 -0.12293,-4.480848 -0.384,-4.74192 -0.55752,-0.55752 -74.514477,-0.55752 -75.071997,0 -0.29305,0.29305 -0.384,7.291261 -0.384,29.546666 0,16.039468 0.0965,29.259136 0.21437,29.37704 0.1179,0.117904 21.7539,0.177904 48.079997,0.133334 l 47.86563,-0.08104 z m -71.359997,10.4 -8.96,-0.16 v -2.56 -2.56 h 32.319997 32.32 l 0.0935,2.484845 c 0.0682,1.811369 -0.0185,2.524048 -0.32,2.629494 -0.6194,0.216669 -45.147777,0.349693 -55.453497,0.165661 z m -8.90515,-13.331811 c -0.11817,-0.11817 -0.21485,-1.333152 -0.21485,-2.699959 0,-2.280787 0.058,-2.503507 0.70533,-2.708966 0.94303,-0.299306 63.703697,0.172307 64.029677,0.481149 0.14025,0.132883 0.21225,1.307648 0.16,2.610595 l -0.095,2.368992 -32.18514,0.08152 c -17.701837,0.04484 -32.281837,-0.01517 -32.400007,-0.133334 z m 0.17075,-13.172183 c -0.29564,-0.193747 -0.38735,-0.997283 -0.32,-2.803792 l 0.0944,-2.532214 h 22.72 22.719997 l 0.0944,2.532214 c 0.0625,1.677415 -0.0316,2.610116 -0.27899,2.762983 -0.53196,0.328771 -44.529567,0.368646 -45.029807,0.04081 z"
       id="path394" />
  </g>
</svg>
